<svg viewBox="0 0 497 415" xmlns="http://www.w3.org/2000/svg"><symbol id="rouble_black"><path fill="#010101" d="M44.431 6.112a12.833 12.833 0 0 0-7.055-4.899A57.446 57.446 0 0 0 25.617.478H9.743v22.194H3.031v8.329h6.712v4.556H3.031v8.329h6.712v5.683h9.799v-5.634H34.24v-8.329H19.542v-4.507h6.467a56.44 56.44 0 0 0 10.24-.686 14.382 14.382 0 0 0 4.899-2.303 13.483 13.483 0 0 0 4.165-4.899 15.975 15.975 0 0 0 1.617-7.594c.24-3.358-.639-6.7-2.499-9.505zm-8.476 13.473a6.47 6.47 0 0 1-3.087 2.401 25.629 25.629 0 0 1-7.839.784h-5.487V8.855h4.899a47.377 47.377 0 0 1 7.104.343 6.863 6.863 0 0 1 3.969 2.156 6.317 6.317 0 0 1 1.568 4.409 6.556 6.556 0 0 1-1.127 3.822z"/></symbol></svg>