<svg viewBox="0 0 497 415" xmlns="http://www.w3.org/2000/svg"><symbol id="cart"><path d="M14.571 16.381c.571 0 .952.381.952.952s-.381.952-.952.952-.952-.381-.952-.952.476-.952.952-.952m0-.952a1.91 1.91 0 0 0-1.905 1.905 1.91 1.91 0 0 0 1.905 1.905 1.91 1.91 0 0 0 1.905-1.905 1.91 1.91 0 0 0-1.905-1.905m-6.666.952c.571 0 .952.381.952.952s-.381.952-.952.952-.952-.381-.952-.952.476-.952.952-.952m0-.952A1.91 1.91 0 0 0 6 17.334a1.91 1.91 0 0 0 1.905 1.905 1.91 1.91 0 0 0 1.905-1.905 1.91 1.91 0 0 0-1.905-1.905m8.571-.953H5.619l-.095-.381c0-.095-1.429-9.714-1.905-11.524C3.238 1.047.286 1.142.286 1.142V.19C.381.19 4-.096 4.572 2.38c.381 1.714 1.619 9.333 1.81 11.143h10.1v.952"/><path d="M4.095 3.048h15.238V4H4.095zm.955 7.619h12.381v.952H5.05z"/><path d="M16.476 11.619h.952l1.905-8.571h-.952l-1.905 8.571"/></symbol></svg>